{
	"asset":{
		"generator":"Khronos glTF Blender I/O v3.6.27",
		"version":"2.0"
	},
	"scene":0,
	"scenes":[
		{
			"name":"Scene",
			"nodes":[
				0
			]
		}
	],
	"nodes":[
		{
			"mesh":0,
			"name":"Curve.028",
			"scale":[
				21.323345184326172,
				21.323345184326172,
				21.323345184326172
			],
			"translation":[
				1.08306086063385,
				0.1419958472251892,
				-0.9593929052352905
			]
		}
	],
	"materials":[
		{
			"doubleSided":true,
			"name":"Material.001",
			"pbrMetallicRoughness":{
				"baseColorFactor":[
					0.800000011920929,
					0.800000011920929,
					0.800000011920929,
					1
				],
				"metallicFactor":0,
				"roughnessFactor":0.4000000059604645
			}
		}
	],
	"meshes":[
		{
			"name":"Curve.028",
			"primitives":[
				{
					"attributes":{
						"POSITION":0,
						"NORMAL":1
					},
					"indices":2,
					"material":0
				}
			]
		}
	],
	"accessors":[
		{
			"bufferView":0,
			"componentType":5126,
			"count":350808,
			"max":[
				0.07781030237674713,
				0.006662159692496061,
				0.09904947876930237
			],
			"min":[
				-0.07710591703653336,
				-0.006659344304352999,
				-0.0951833575963974
			],
			"type":"VEC3"
		},
		{
			"bufferView":1,
			"componentType":5126,
			"count":350808,
			"type":"VEC3"
		},
		{
			"bufferView":2,
			"componentType":5125,
			"count":2112348,
			"type":"SCALAR"
		}
	],
	"bufferViews":[
		{
			"buffer":0,
			"byteLength":4209696,
			"byteOffset":0,
			"target":34962
		},
		{
			"buffer":0,
			"byteLength":4209696,
			"byteOffset":4209696,
			"target":34962
		},
		{
			"buffer":0,
			"byteLength":8449392,
			"byteOffset":8419392,
			"target":34963
		}
	],
	"buffers":[
		{
			"byteLength":16868784,
			"uri":"EMR_logo_1.bin"
		}
	]
}
