{
	"asset":{
		"generator":"Khronos glTF Blender I/O v3.6.27",
		"version":"2.0"
	},
	"scene":0,
	"scenes":[
		{
			"name":"Scene",
			"nodes":[
				0,
				1,
				2,
				3,
				4,
				5,
				6
			]
		}
	],
	"nodes":[
		{
			"mesh":0,
			"name":"Curve.060",
			"scale":[
				58.642574310302734,
				58.642574310302734,
				58.642574310302734
			],
			"translation":[
				5.577710151672363,
				0,
				-8.36820125579834
			]
		},
		{
			"mesh":1,
			"name":"Curve.001",
			"scale":[
				58.642574310302734,
				58.642574310302734,
				58.642574310302734
			],
			"translation":[
				5.577710151672363,
				0,
				-8.36820125579834
			]
		},
		{
			"mesh":2,
			"name":"Curve.059",
			"scale":[
				55.349735260009766,
				55.349735260009766,
				55.349735260009766
			],
			"translation":[
				4.705018997192383,
				0.029060330241918564,
				-6.934683799743652
			]
		},
		{
			"mesh":3,
			"name":"Curve.002",
			"scale":[
				55.349735260009766,
				55.349735260009766,
				55.349735260009766
			],
			"translation":[
				4.681500434875488,
				0.029060330241918564,
				-6.934683799743652
			]
		},
		{
			"mesh":4,
			"name":"Curve.061",
			"scale":[
				55.39888000488281,
				55.39888000488281,
				55.39888000488281
			],
			"translation":[
				4.613729476928711,
				0.01811809092760086,
				-5.8154191970825195
			]
		},
		{
			"mesh":5,
			"name":"Curve.003",
			"scale":[
				55.39888000488281,
				55.39888000488281,
				55.39888000488281
			],
			"translation":[
				4.537452220916748,
				0.01811809092760086,
				-5.7582502365112305
			]
		},
		{
			"mesh":6,
			"name":"Curve.008",
			"scale":[
				55.34092712402344,
				55.34092712402344,
				55.34092712402344
			],
			"translation":[
				5.982838153839111,
				-0.2493038773536682,
				-6.685614585876465
			]
		}
	],
	"materials":[
		{
			"doubleSided":true,
			"name":"SVGMat.004",
			"pbrMetallicRoughness":{
				"baseColorFactor":[
					0.08650045096874237,
					0.46778395771980286,
					0.07036010175943375,
					1
				],
				"metallicFactor":0.3870967626571655,
				"roughnessFactor":0.7365591526031494
			}
		},
		{
			"doubleSided":true,
			"name":"SVGMat.018",
			"pbrMetallicRoughness":{
				"baseColorFactor":[
					0.08650045096874237,
					0.4620770215988159,
					0.06847818195819855,
					1
				],
				"metallicFactor":0,
				"roughnessFactor":0.5
			}
		},
		{
			"doubleSided":true,
			"name":"SVGMat.003",
			"pbrMetallicRoughness":{
				"baseColorFactor":[
					0.04231142997741699,
					0.30946895480155945,
					0.06847818195819855,
					1
				],
				"metallicFactor":0.3978494703769684,
				"roughnessFactor":0.5
			}
		},
		{
			"doubleSided":true,
			"name":"SVGMat.063",
			"pbrMetallicRoughness":{
				"baseColorFactor":[
					0.04231142997741699,
					0.30946895480155945,
					0.06847818195819855,
					1
				],
				"metallicFactor":0.3978494703769684,
				"roughnessFactor":0.5
			}
		},
		{
			"doubleSided":true,
			"name":"SVGMat.017",
			"pbrMetallicRoughness":{
				"baseColorFactor":[
					0.010960093699395657,
					0.16202937066555023,
					0.046665091067552567,
					1
				],
				"metallicFactor":0.49462366104125977,
				"roughnessFactor":0.5
			}
		},
		{
			"doubleSided":true,
			"name":"SVGMat.064",
			"pbrMetallicRoughness":{
				"baseColorFactor":[
					0.010960093699395657,
					0.16202937066555023,
					0.046665091067552567,
					1
				],
				"metallicFactor":0.49462366104125977,
				"roughnessFactor":0.5
			}
		},
		{
			"doubleSided":true,
			"name":"SVGMat.001",
			"pbrMetallicRoughness":{
				"baseColorFactor":[
					0,
					0,
					0,
					1
				],
				"metallicFactor":0.5698924660682678,
				"roughnessFactor":0.5
			}
		}
	],
	"meshes":[
		{
			"name":"Curve.066",
			"primitives":[
				{
					"attributes":{
						"POSITION":0,
						"NORMAL":1,
						"TEXCOORD_0":2
					},
					"indices":3,
					"material":0
				}
			]
		},
		{
			"name":"Curve.059",
			"primitives":[
				{
					"attributes":{
						"POSITION":4,
						"NORMAL":5,
						"TEXCOORD_0":6
					},
					"indices":7,
					"material":1
				}
			]
		},
		{
			"name":"Curve.061",
			"primitives":[
				{
					"attributes":{
						"POSITION":8,
						"NORMAL":9,
						"TEXCOORD_0":10
					},
					"indices":11,
					"material":2
				}
			]
		},
		{
			"name":"Curve.060",
			"primitives":[
				{
					"attributes":{
						"POSITION":12,
						"NORMAL":13,
						"TEXCOORD_0":14
					},
					"indices":15,
					"material":3
				}
			]
		},
		{
			"name":"Curve.067",
			"primitives":[
				{
					"attributes":{
						"POSITION":16,
						"NORMAL":17,
						"TEXCOORD_0":18
					},
					"indices":19,
					"material":4
				}
			]
		},
		{
			"name":"Curve.062",
			"primitives":[
				{
					"attributes":{
						"POSITION":20,
						"NORMAL":21,
						"TEXCOORD_0":22
					},
					"indices":23,
					"material":5
				}
			]
		},
		{
			"name":"Curve.008",
			"primitives":[
				{
					"attributes":{
						"POSITION":24,
						"NORMAL":25
					},
					"indices":26,
					"material":6
				}
			]
		}
	],
	"accessors":[
		{
			"bufferView":0,
			"componentType":5126,
			"count":1140,
			"max":[
				0.010738033801317215,
				0.00613123644143343,
				0.02277861349284649
			],
			"min":[
				-0.021595286205410957,
				-0.008501691743731499,
				-0.023604756221175194
			],
			"type":"VEC3"
		},
		{
			"bufferView":1,
			"componentType":5126,
			"count":1140,
			"type":"VEC3"
		},
		{
			"bufferView":2,
			"componentType":5126,
			"count":1140,
			"type":"VEC2"
		},
		{
			"bufferView":3,
			"componentType":5123,
			"count":5460,
			"type":"SCALAR"
		},
		{
			"bufferView":4,
			"componentType":5126,
			"count":1369,
			"max":[
				0.010738033801317215,
				0.00613123644143343,
				0.02277861349284649
			],
			"min":[
				-0.021595286205410957,
				-0.008596540428698063,
				-0.023604756221175194
			],
			"type":"VEC3"
		},
		{
			"bufferView":5,
			"componentType":5126,
			"count":1369,
			"type":"VEC3"
		},
		{
			"bufferView":6,
			"componentType":5126,
			"count":1369,
			"type":"VEC2"
		},
		{
			"bufferView":7,
			"componentType":5123,
			"count":6750,
			"type":"SCALAR"
		},
		{
			"bufferView":8,
			"componentType":5126,
			"count":1920,
			"max":[
				0.02643571048974991,
				0.0031459610909223557,
				0.03738567233085632
			],
			"min":[
				-0.03284631296992302,
				-0.010124102234840393,
				-0.03570088371634483
			],
			"type":"VEC3"
		},
		{
			"bufferView":9,
			"componentType":5126,
			"count":1920,
			"type":"VEC3"
		},
		{
			"bufferView":10,
			"componentType":5126,
			"count":1920,
			"type":"VEC2"
		},
		{
			"bufferView":11,
			"componentType":5123,
			"count":9204,
			"type":"SCALAR"
		},
		{
			"bufferView":12,
			"componentType":5126,
			"count":1920,
			"max":[
				0.02643571048974991,
				0.0031459610909223557,
				0.03738567233085632
			],
			"min":[
				-0.03284631296992302,
				-0.010124102234840393,
				-0.03570088371634483
			],
			"type":"VEC3"
		},
		{
			"bufferView":13,
			"componentType":5126,
			"count":1920,
			"type":"VEC3"
		},
		{
			"bufferView":14,
			"componentType":5126,
			"count":1920,
			"type":"VEC2"
		},
		{
			"bufferView":15,
			"componentType":5123,
			"count":9204,
			"type":"SCALAR"
		},
		{
			"bufferView":16,
			"componentType":5126,
			"count":875,
			"max":[
				0.02837873250246048,
				0,
				0.022014431655406952
			],
			"min":[
				-0.031011037528514862,
				-0.008999479003250599,
				-0.03175023943185806
			],
			"type":"VEC3"
		},
		{
			"bufferView":17,
			"componentType":5126,
			"count":875,
			"type":"VEC3"
		},
		{
			"bufferView":18,
			"componentType":5126,
			"count":875,
			"type":"VEC2"
		},
		{
			"bufferView":19,
			"componentType":5123,
			"count":3480,
			"type":"SCALAR"
		},
		{
			"bufferView":20,
			"componentType":5126,
			"count":1166,
			"max":[
				0.02837873250246048,
				0,
				0.022014431655406952
			],
			"min":[
				-0.031011037528514862,
				-0.009672330692410469,
				-0.03175023943185806
			],
			"type":"VEC3"
		},
		{
			"bufferView":21,
			"componentType":5126,
			"count":1166,
			"type":"VEC3"
		},
		{
			"bufferView":22,
			"componentType":5126,
			"count":1166,
			"type":"VEC2"
		},
		{
			"bufferView":23,
			"componentType":5123,
			"count":5226,
			"type":"SCALAR"
		},
		{
			"bufferView":24,
			"componentType":5126,
			"count":1784046,
			"max":[
				0.08056344836950302,
				0.004504725337028503,
				0.10774317383766174
			],
			"min":[
				-0.07435993105173111,
				-0.004504092037677765,
				-0.08648987859487534
			],
			"type":"VEC3"
		},
		{
			"bufferView":25,
			"componentType":5126,
			"count":1784046,
			"type":"VEC3"
		},
		{
			"bufferView":26,
			"componentType":5125,
			"count":6340272,
			"type":"SCALAR"
		}
	],
	"bufferViews":[
		{
			"buffer":0,
			"byteLength":13680,
			"byteOffset":0,
			"target":34962
		},
		{
			"buffer":0,
			"byteLength":13680,
			"byteOffset":13680,
			"target":34962
		},
		{
			"buffer":0,
			"byteLength":9120,
			"byteOffset":27360,
			"target":34962
		},
		{
			"buffer":0,
			"byteLength":10920,
			"byteOffset":36480,
			"target":34963
		},
		{
			"buffer":0,
			"byteLength":16428,
			"byteOffset":47400,
			"target":34962
		},
		{
			"buffer":0,
			"byteLength":16428,
			"byteOffset":63828,
			"target":34962
		},
		{
			"buffer":0,
			"byteLength":10952,
			"byteOffset":80256,
			"target":34962
		},
		{
			"buffer":0,
			"byteLength":13500,
			"byteOffset":91208,
			"target":34963
		},
		{
			"buffer":0,
			"byteLength":23040,
			"byteOffset":104708,
			"target":34962
		},
		{
			"buffer":0,
			"byteLength":23040,
			"byteOffset":127748,
			"target":34962
		},
		{
			"buffer":0,
			"byteLength":15360,
			"byteOffset":150788,
			"target":34962
		},
		{
			"buffer":0,
			"byteLength":18408,
			"byteOffset":166148,
			"target":34963
		},
		{
			"buffer":0,
			"byteLength":23040,
			"byteOffset":184556,
			"target":34962
		},
		{
			"buffer":0,
			"byteLength":23040,
			"byteOffset":207596,
			"target":34962
		},
		{
			"buffer":0,
			"byteLength":15360,
			"byteOffset":230636,
			"target":34962
		},
		{
			"buffer":0,
			"byteLength":18408,
			"byteOffset":245996,
			"target":34963
		},
		{
			"buffer":0,
			"byteLength":10500,
			"byteOffset":264404,
			"target":34962
		},
		{
			"buffer":0,
			"byteLength":10500,
			"byteOffset":274904,
			"target":34962
		},
		{
			"buffer":0,
			"byteLength":7000,
			"byteOffset":285404,
			"target":34962
		},
		{
			"buffer":0,
			"byteLength":6960,
			"byteOffset":292404,
			"target":34963
		},
		{
			"buffer":0,
			"byteLength":13992,
			"byteOffset":299364,
			"target":34962
		},
		{
			"buffer":0,
			"byteLength":13992,
			"byteOffset":313356,
			"target":34962
		},
		{
			"buffer":0,
			"byteLength":9328,
			"byteOffset":327348,
			"target":34962
		},
		{
			"buffer":0,
			"byteLength":10452,
			"byteOffset":336676,
			"target":34963
		},
		{
			"buffer":0,
			"byteLength":21408552,
			"byteOffset":347128,
			"target":34962
		},
		{
			"buffer":0,
			"byteLength":21408552,
			"byteOffset":21755680,
			"target":34962
		},
		{
			"buffer":0,
			"byteLength":25361088,
			"byteOffset":43164232,
			"target":34963
		}
	],
	"buffers":[
		{
			"byteLength":68525320,
			"uri":"EMR_logo.bin"
		}
	]
}
