{
	"asset":{
		"generator":"Khronos glTF Blender I/O v3.6.27",
		"version":"2.0"
	},
	"scene":0,
	"scenes":[
		{
			"name":"Scene",
			"nodes":[
				0,
				1,
				2,
				3,
				4,
				5,
				6,
				7,
				8,
				9,
				10,
				11,
				12
			]
		}
	],
	"nodes":[
		{
			"mesh":0,
			"name":"Curve.060",
			"scale":[
				58.642574310302734,
				58.642574310302734,
				58.642574310302734
			],
			"translation":[
				5.577710151672363,
				0,
				-8.36820125579834
			]
		},
		{
			"mesh":1,
			"name":"Curve.001",
			"scale":[
				58.642574310302734,
				58.642574310302734,
				58.642574310302734
			],
			"translation":[
				5.577710151672363,
				0,
				-8.36820125579834
			]
		},
		{
			"mesh":2,
			"name":"Curve.059",
			"scale":[
				55.349735260009766,
				55.349735260009766,
				55.349735260009766
			],
			"translation":[
				4.705018997192383,
				0.029060330241918564,
				-6.934683799743652
			]
		},
		{
			"mesh":3,
			"name":"Curve.002",
			"scale":[
				55.349735260009766,
				55.349735260009766,
				55.349735260009766
			],
			"translation":[
				4.681500434875488,
				0.029060330241918564,
				-6.934683799743652
			]
		},
		{
			"mesh":4,
			"name":"Curve.061",
			"scale":[
				55.39888000488281,
				55.39888000488281,
				55.39888000488281
			],
			"translation":[
				4.613729476928711,
				0.01811809092760086,
				-5.8154191970825195
			]
		},
		{
			"mesh":5,
			"name":"Curve.003",
			"scale":[
				55.39888000488281,
				55.39888000488281,
				55.39888000488281
			],
			"translation":[
				4.537452220916748,
				0.01811809092760086,
				-5.7582502365112305
			]
		},
		{
			"mesh":6,
			"name":"Curve.008",
			"scale":[
				55.34092712402344,
				55.34092712402344,
				55.34092712402344
			],
			"translation":[
				5.982838153839111,
				-0.2493038773536682,
				-6.685614585876465
			]
		},
		{
			"mesh":7,
			"name":"Curve",
			"scale":[
				24.107572555541992,
				24.107572555541992,
				24.107572555541992
			],
			"translation":[
				6.145125389099121,
				0,
				-6.072772026062012
			]
		},
		{
			"name":"Curve.004",
			"scale":[
				24.107572555541992,
				24.107572555541992,
				24.107572555541992
			],
			"translation":[
				4.198596477508545,
				0,
				-3.771009922027588
			]
		},
		{
			"mesh":8,
			"name":"Curve.005",
			"scale":[
				24.107572555541992,
				24.107572555541992,
				24.107572555541992
			],
			"translation":[
				8.012661933898926,
				0,
				-3.771836757659912
			]
		},
		{
			"mesh":9,
			"name":"Curve.006",
			"scale":[
				24.107572555541992,
				24.107572555541992,
				24.107572555541992
			],
			"translation":[
				5.515652656555176,
				0,
				-2.2895569801330566
			]
		},
		{
			"mesh":10,
			"name":"Curve.007",
			"scale":[
				24.107572555541992,
				24.107572555541992,
				24.107572555541992
			],
			"translation":[
				6.6872239112854,
				0,
				-2.22556734085083
			]
		},
		{
			"mesh":11,
			"name":"Curve.009",
			"rotation":[
				0,
				0.9990530014038086,
				0,
				0.04350997507572174
			],
			"scale":[
				24.107572555541992,
				24.107572555541992,
				24.107572555541992
			],
			"translation":[
				4.113173007965088,
				0,
				-3.7034215927124023
			]
		}
	],
	"materials":[
		{
			"doubleSided":true,
			"name":"SVGMat.004",
			"pbrMetallicRoughness":{
				"baseColorFactor":[
					0.08650045096874237,
					0.46778395771980286,
					0.07036010175943375,
					1
				],
				"metallicFactor":0.3870967626571655,
				"roughnessFactor":0.7365591526031494
			}
		},
		{
			"doubleSided":true,
			"name":"SVGMat.018",
			"pbrMetallicRoughness":{
				"baseColorFactor":[
					0.08650045096874237,
					0.4620770215988159,
					0.06847818195819855,
					1
				],
				"metallicFactor":0,
				"roughnessFactor":0.5
			}
		},
		{
			"doubleSided":true,
			"name":"SVGMat.003",
			"pbrMetallicRoughness":{
				"baseColorFactor":[
					0.04231142997741699,
					0.30946895480155945,
					0.06847818195819855,
					1
				],
				"metallicFactor":0.3978494703769684,
				"roughnessFactor":0.5
			}
		},
		{
			"doubleSided":true,
			"name":"SVGMat.063",
			"pbrMetallicRoughness":{
				"baseColorFactor":[
					0.04231142997741699,
					0.30946895480155945,
					0.06847818195819855,
					1
				],
				"metallicFactor":0.3978494703769684,
				"roughnessFactor":0.5
			}
		},
		{
			"doubleSided":true,
			"name":"SVGMat.017",
			"pbrMetallicRoughness":{
				"baseColorFactor":[
					0.010960093699395657,
					0.16202937066555023,
					0.046665091067552567,
					1
				],
				"metallicFactor":0.49462366104125977,
				"roughnessFactor":0.5
			}
		},
		{
			"doubleSided":true,
			"name":"SVGMat.064",
			"pbrMetallicRoughness":{
				"baseColorFactor":[
					0.010960093699395657,
					0.16202937066555023,
					0.046665091067552567,
					1
				],
				"metallicFactor":0.49462366104125977,
				"roughnessFactor":0.5
			}
		},
		{
			"doubleSided":true,
			"name":"SVGMat.001",
			"pbrMetallicRoughness":{
				"metallicFactor":0.5698924660682678,
				"roughnessFactor":0.5
			}
		},
		{
			"doubleSided":true,
			"name":"SVGMat.002",
			"pbrMetallicRoughness":{
				"baseColorFactor":[
					0.8307701349258423,
					0.7156937122344971,
					0.25015830993652344,
					1
				],
				"metallicFactor":0,
				"roughnessFactor":0.5
			}
		},
		{
			"doubleSided":true,
			"name":"SVGMat.008",
			"pbrMetallicRoughness":{
				"baseColorFactor":[
					0.8387991189956665,
					0.7156937122344971,
					0.2541521489620209,
					1
				],
				"metallicFactor":0,
				"roughnessFactor":0.5
			}
		},
		{
			"doubleSided":true,
			"name":"SVGMat.010",
			"pbrMetallicRoughness":{
				"baseColorFactor":[
					0.8307701349258423,
					0.7083759903907776,
					0.25015830993652344,
					1
				],
				"metallicFactor":0,
				"roughnessFactor":0.5
			}
		},
		{
			"doubleSided":true,
			"name":"SVGMat.012",
			"pbrMetallicRoughness":{
				"baseColorFactor":[
					0.8387991189956665,
					0.7156937122344971,
					0.2541521489620209,
					1
				],
				"metallicFactor":0,
				"roughnessFactor":0.5
			}
		},
		{
			"doubleSided":true,
			"name":"SVGMat.014",
			"pbrMetallicRoughness":{
				"baseColorFactor":[
					0.8387991189956665,
					0.7230553030967712,
					0.26635563373565674,
					1
				],
				"metallicFactor":0,
				"roughnessFactor":0.5
			}
		}
	],
	"meshes":[
		{
			"name":"Curve.066",
			"primitives":[
				{
					"attributes":{
						"POSITION":0,
						"NORMAL":1,
						"TEXCOORD_0":2
					},
					"indices":3,
					"material":0
				}
			]
		},
		{
			"name":"Curve.059",
			"primitives":[
				{
					"attributes":{
						"POSITION":4,
						"NORMAL":5,
						"TEXCOORD_0":6
					},
					"indices":7,
					"material":1
				}
			]
		},
		{
			"name":"Curve.061",
			"primitives":[
				{
					"attributes":{
						"POSITION":8,
						"NORMAL":9,
						"TEXCOORD_0":10
					},
					"indices":11,
					"material":2
				}
			]
		},
		{
			"name":"Curve.060",
			"primitives":[
				{
					"attributes":{
						"POSITION":12,
						"NORMAL":13,
						"TEXCOORD_0":14
					},
					"indices":15,
					"material":3
				}
			]
		},
		{
			"name":"Curve.067",
			"primitives":[
				{
					"attributes":{
						"POSITION":16,
						"NORMAL":17,
						"TEXCOORD_0":18
					},
					"indices":19,
					"material":4
				}
			]
		},
		{
			"name":"Curve.062",
			"primitives":[
				{
					"attributes":{
						"POSITION":20,
						"NORMAL":21,
						"TEXCOORD_0":22
					},
					"indices":23,
					"material":5
				}
			]
		},
		{
			"name":"Curve.008",
			"primitives":[
				{
					"attributes":{
						"POSITION":24,
						"NORMAL":25
					},
					"indices":26,
					"material":6
				}
			]
		},
		{
			"name":"Curve",
			"primitives":[
				{
					"attributes":{
						"POSITION":27,
						"NORMAL":28,
						"TEXCOORD_0":29
					},
					"indices":30,
					"material":7
				}
			]
		},
		{
			"name":"Curve.002",
			"primitives":[
				{
					"attributes":{
						"POSITION":31,
						"NORMAL":32,
						"TEXCOORD_0":33
					},
					"indices":34,
					"material":8
				}
			]
		},
		{
			"name":"Curve.003",
			"primitives":[
				{
					"attributes":{
						"POSITION":35,
						"NORMAL":36,
						"TEXCOORD_0":37
					},
					"indices":38,
					"material":9
				}
			]
		},
		{
			"name":"Curve.004",
			"primitives":[
				{
					"attributes":{
						"POSITION":39,
						"NORMAL":40,
						"TEXCOORD_0":41
					},
					"indices":42,
					"material":10
				}
			]
		},
		{
			"name":"Curve.005",
			"primitives":[
				{
					"attributes":{
						"POSITION":43,
						"NORMAL":44,
						"TEXCOORD_0":45
					},
					"indices":34,
					"material":11
				}
			]
		}
	],
	"accessors":[
		{
			"bufferView":0,
			"componentType":5126,
			"count":2722,
			"max":[
				0.010738033801317215,
				0.00613123644143343,
				0.02277861349284649
			],
			"min":[
				-0.021595286205410957,
				-0.008501691743731499,
				-0.023604756221175194
			],
			"type":"VEC3"
		},
		{
			"bufferView":1,
			"componentType":5126,
			"count":2722,
			"type":"VEC3"
		},
		{
			"bufferView":2,
			"componentType":5126,
			"count":2722,
			"type":"VEC2"
		},
		{
			"bufferView":3,
			"componentType":5123,
			"count":5460,
			"type":"SCALAR"
		},
		{
			"bufferView":4,
			"componentType":5126,
			"count":3573,
			"max":[
				0.010738033801317215,
				0.00613123644143343,
				0.02277861349284649
			],
			"min":[
				-0.021595286205410957,
				-0.008596540428698063,
				-0.023604756221175194
			],
			"type":"VEC3"
		},
		{
			"bufferView":5,
			"componentType":5126,
			"count":3573,
			"type":"VEC3"
		},
		{
			"bufferView":6,
			"componentType":5126,
			"count":3573,
			"type":"VEC2"
		},
		{
			"bufferView":7,
			"componentType":5123,
			"count":6750,
			"type":"SCALAR"
		},
		{
			"bufferView":8,
			"componentType":5126,
			"count":5388,
			"max":[
				0.02643571048974991,
				0.0031459610909223557,
				0.03738567233085632
			],
			"min":[
				-0.03284631296992302,
				-0.010124102234840393,
				-0.03570088371634483
			],
			"type":"VEC3"
		},
		{
			"bufferView":9,
			"componentType":5126,
			"count":5388,
			"type":"VEC3"
		},
		{
			"bufferView":10,
			"componentType":5126,
			"count":5388,
			"type":"VEC2"
		},
		{
			"bufferView":11,
			"componentType":5123,
			"count":9204,
			"type":"SCALAR"
		},
		{
			"bufferView":12,
			"componentType":5126,
			"count":5388,
			"max":[
				0.02643571048974991,
				0.0031459610909223557,
				0.03738567233085632
			],
			"min":[
				-0.03284631296992302,
				-0.010124102234840393,
				-0.03570088371634483
			],
			"type":"VEC3"
		},
		{
			"bufferView":13,
			"componentType":5126,
			"count":5388,
			"type":"VEC3"
		},
		{
			"bufferView":14,
			"componentType":5126,
			"count":5388,
			"type":"VEC2"
		},
		{
			"bufferView":15,
			"componentType":5123,
			"count":9204,
			"type":"SCALAR"
		},
		{
			"bufferView":16,
			"componentType":5126,
			"count":875,
			"max":[
				0.02837873250246048,
				0,
				0.022014431655406952
			],
			"min":[
				-0.031011037528514862,
				-0.008999479003250599,
				-0.03175023943185806
			],
			"type":"VEC3"
		},
		{
			"bufferView":17,
			"componentType":5126,
			"count":875,
			"type":"VEC3"
		},
		{
			"bufferView":18,
			"componentType":5126,
			"count":875,
			"type":"VEC2"
		},
		{
			"bufferView":19,
			"componentType":5123,
			"count":3480,
			"type":"SCALAR"
		},
		{
			"bufferView":20,
			"componentType":5126,
			"count":2799,
			"max":[
				0.02837873250246048,
				0,
				0.022014431655406952
			],
			"min":[
				-0.031011037528514862,
				-0.009672330692410469,
				-0.03175023943185806
			],
			"type":"VEC3"
		},
		{
			"bufferView":21,
			"componentType":5126,
			"count":2799,
			"type":"VEC3"
		},
		{
			"bufferView":22,
			"componentType":5126,
			"count":2799,
			"type":"VEC2"
		},
		{
			"bufferView":23,
			"componentType":5123,
			"count":5226,
			"type":"SCALAR"
		},
		{
			"bufferView":24,
			"componentType":5126,
			"count":1784046,
			"max":[
				0.08056344836950302,
				0.004504725337028503,
				0.10774317383766174
			],
			"min":[
				-0.07435993105173111,
				-0.004504092037677765,
				-0.08648987859487534
			],
			"type":"VEC3"
		},
		{
			"bufferView":25,
			"componentType":5126,
			"count":1784046,
			"type":"VEC3"
		},
		{
			"bufferView":26,
			"componentType":5125,
			"count":6340272,
			"type":"SCALAR"
		},
		{
			"bufferView":27,
			"componentType":5126,
			"count":648,
			"max":[
				0.15035974979400635,
				0,
				0.08606597781181335
			],
			"min":[
				-0.15373799204826355,
				-0.015172015875577927,
				-0.19389168918132782
			],
			"type":"VEC3"
		},
		{
			"bufferView":28,
			"componentType":5126,
			"count":648,
			"type":"VEC3"
		},
		{
			"bufferView":29,
			"componentType":5126,
			"count":648,
			"type":"VEC2"
		},
		{
			"bufferView":30,
			"componentType":5123,
			"count":3876,
			"type":"SCALAR"
		},
		{
			"bufferView":31,
			"componentType":5126,
			"count":120,
			"max":[
				0.003747838083654642,
				0,
				0.010372549295425415
			],
			"min":[
				-0.0024614334106445312,
				-0.015172015875577927,
				-0.007270406000316143
			],
			"type":"VEC3"
		},
		{
			"bufferView":32,
			"componentType":5126,
			"count":120,
			"type":"VEC3"
		},
		{
			"bufferView":33,
			"componentType":5126,
			"count":120,
			"type":"VEC2"
		},
		{
			"bufferView":34,
			"componentType":5123,
			"count":708,
			"type":"SCALAR"
		},
		{
			"bufferView":35,
			"componentType":5126,
			"count":264,
			"max":[
				0.020963849499821663,
				0,
				0.03833386301994324
			],
			"min":[
				-0.017983868718147278,
				-0.015172015875577927,
				-0.023057205602526665
			],
			"type":"VEC3"
		},
		{
			"bufferView":36,
			"componentType":5126,
			"count":264,
			"type":"VEC3"
		},
		{
			"bufferView":37,
			"componentType":5126,
			"count":264,
			"type":"VEC2"
		},
		{
			"bufferView":38,
			"componentType":5123,
			"count":1572,
			"type":"SCALAR"
		},
		{
			"bufferView":39,
			"componentType":5126,
			"count":240,
			"max":[
				0.020696960389614105,
				0,
				0.035679519176483154
			],
			"min":[
				-0.018320530652999878,
				-0.015172015875577927,
				-0.02569669671356678
			],
			"type":"VEC3"
		},
		{
			"bufferView":40,
			"componentType":5126,
			"count":240,
			"type":"VEC3"
		},
		{
			"bufferView":41,
			"componentType":5126,
			"count":240,
			"type":"VEC2"
		},
		{
			"bufferView":42,
			"componentType":5123,
			"count":1428,
			"type":"SCALAR"
		},
		{
			"bufferView":43,
			"componentType":5126,
			"count":120,
			"max":[
				0.003747838083654642,
				0,
				0.010372549295425415
			],
			"min":[
				-0.0024614334106445312,
				-0.015172015875577927,
				-0.007270406000316143
			],
			"type":"VEC3"
		},
		{
			"bufferView":44,
			"componentType":5126,
			"count":120,
			"type":"VEC3"
		},
		{
			"bufferView":45,
			"componentType":5126,
			"count":120,
			"type":"VEC2"
		}
	],
	"bufferViews":[
		{
			"buffer":0,
			"byteLength":32664,
			"byteOffset":0,
			"target":34962
		},
		{
			"buffer":0,
			"byteLength":32664,
			"byteOffset":32664,
			"target":34962
		},
		{
			"buffer":0,
			"byteLength":21776,
			"byteOffset":65328,
			"target":34962
		},
		{
			"buffer":0,
			"byteLength":10920,
			"byteOffset":87104,
			"target":34963
		},
		{
			"buffer":0,
			"byteLength":42876,
			"byteOffset":98024,
			"target":34962
		},
		{
			"buffer":0,
			"byteLength":42876,
			"byteOffset":140900,
			"target":34962
		},
		{
			"buffer":0,
			"byteLength":28584,
			"byteOffset":183776,
			"target":34962
		},
		{
			"buffer":0,
			"byteLength":13500,
			"byteOffset":212360,
			"target":34963
		},
		{
			"buffer":0,
			"byteLength":64656,
			"byteOffset":225860,
			"target":34962
		},
		{
			"buffer":0,
			"byteLength":64656,
			"byteOffset":290516,
			"target":34962
		},
		{
			"buffer":0,
			"byteLength":43104,
			"byteOffset":355172,
			"target":34962
		},
		{
			"buffer":0,
			"byteLength":18408,
			"byteOffset":398276,
			"target":34963
		},
		{
			"buffer":0,
			"byteLength":64656,
			"byteOffset":416684,
			"target":34962
		},
		{
			"buffer":0,
			"byteLength":64656,
			"byteOffset":481340,
			"target":34962
		},
		{
			"buffer":0,
			"byteLength":43104,
			"byteOffset":545996,
			"target":34962
		},
		{
			"buffer":0,
			"byteLength":18408,
			"byteOffset":589100,
			"target":34963
		},
		{
			"buffer":0,
			"byteLength":10500,
			"byteOffset":607508,
			"target":34962
		},
		{
			"buffer":0,
			"byteLength":10500,
			"byteOffset":618008,
			"target":34962
		},
		{
			"buffer":0,
			"byteLength":7000,
			"byteOffset":628508,
			"target":34962
		},
		{
			"buffer":0,
			"byteLength":6960,
			"byteOffset":635508,
			"target":34963
		},
		{
			"buffer":0,
			"byteLength":33588,
			"byteOffset":642468,
			"target":34962
		},
		{
			"buffer":0,
			"byteLength":33588,
			"byteOffset":676056,
			"target":34962
		},
		{
			"buffer":0,
			"byteLength":22392,
			"byteOffset":709644,
			"target":34962
		},
		{
			"buffer":0,
			"byteLength":10452,
			"byteOffset":732036,
			"target":34963
		},
		{
			"buffer":0,
			"byteLength":21408552,
			"byteOffset":742488,
			"target":34962
		},
		{
			"buffer":0,
			"byteLength":21408552,
			"byteOffset":22151040,
			"target":34962
		},
		{
			"buffer":0,
			"byteLength":25361088,
			"byteOffset":43559592,
			"target":34963
		},
		{
			"buffer":0,
			"byteLength":7776,
			"byteOffset":68920680,
			"target":34962
		},
		{
			"buffer":0,
			"byteLength":7776,
			"byteOffset":68928456,
			"target":34962
		},
		{
			"buffer":0,
			"byteLength":5184,
			"byteOffset":68936232,
			"target":34962
		},
		{
			"buffer":0,
			"byteLength":7752,
			"byteOffset":68941416,
			"target":34963
		},
		{
			"buffer":0,
			"byteLength":1440,
			"byteOffset":68949168,
			"target":34962
		},
		{
			"buffer":0,
			"byteLength":1440,
			"byteOffset":68950608,
			"target":34962
		},
		{
			"buffer":0,
			"byteLength":960,
			"byteOffset":68952048,
			"target":34962
		},
		{
			"buffer":0,
			"byteLength":1416,
			"byteOffset":68953008,
			"target":34963
		},
		{
			"buffer":0,
			"byteLength":3168,
			"byteOffset":68954424,
			"target":34962
		},
		{
			"buffer":0,
			"byteLength":3168,
			"byteOffset":68957592,
			"target":34962
		},
		{
			"buffer":0,
			"byteLength":2112,
			"byteOffset":68960760,
			"target":34962
		},
		{
			"buffer":0,
			"byteLength":3144,
			"byteOffset":68962872,
			"target":34963
		},
		{
			"buffer":0,
			"byteLength":2880,
			"byteOffset":68966016,
			"target":34962
		},
		{
			"buffer":0,
			"byteLength":2880,
			"byteOffset":68968896,
			"target":34962
		},
		{
			"buffer":0,
			"byteLength":1920,
			"byteOffset":68971776,
			"target":34962
		},
		{
			"buffer":0,
			"byteLength":2856,
			"byteOffset":68973696,
			"target":34963
		},
		{
			"buffer":0,
			"byteLength":1440,
			"byteOffset":68976552,
			"target":34962
		},
		{
			"buffer":0,
			"byteLength":1440,
			"byteOffset":68977992,
			"target":34962
		},
		{
			"buffer":0,
			"byteLength":960,
			"byteOffset":68979432,
			"target":34962
		}
	],
	"buffers":[
		{
			"byteLength":68980392,
			"uri":"logo.bin"
		}
	]
}
